<svg width="63" height="69" viewBox="0 0 63 69" fill="none" xmlns="http://www.w3.org/2000/svg">
<path d="M3.43647 51.9474C2.68748 37.8827 1.93848 23.818 1.17166 9.75328C1.07357 7.96651 0.922005 6.17973 0.654509 4.41754C0.0481826 0.458771 0.699083 -0.147748 5.10386 0.0325685C22.0275 0.729247 38.9511 1.45871 55.8747 1.99966C63.436 2.24555 63.4003 2.04884 62.5354 8.4091C60.8413 20.9247 59.2185 33.4485 57.5332 45.9642C56.9537 50.2836 55.9461 54.5538 55.8212 58.9388C55.7767 60.4961 54.9028 61.6189 52.7094 62.1353C45.9417 63.7418 39.2543 65.6679 32.6293 67.7087C28.0194 69.1267 24.2655 66.676 20.4314 65.4794C16.3833 64.2171 12.4868 62.291 8.296 61.3649C4.9523 60.6272 3.26705 59.2502 3.62371 55.9963C3.76638 54.6522 3.65046 53.2916 3.65046 51.9392C3.57913 51.9474 3.5078 51.9474 3.43647 51.9474Z" fill="#006AB1"/>
<path d="M30.1683 21.1544C25.9062 19.4332 21.5193 19.9414 17.2571 19.8512C12.3887 19.7447 10.8729 18.4087 11.5862 13.9827C11.8448 12.3927 13.0753 12.4418 14.2344 12.4746C26.0221 12.8271 37.8009 13.5893 49.6064 13.409C50.721 13.3926 51.2114 13.9663 51.1757 15.081C51.0509 19.3103 49.223 21.556 44.8985 22.8183C40.8058 24.0149 36.7577 25.3263 32.9325 27.1377C32.9503 27.4737 32.9681 27.818 32.986 28.154C37.6315 28.154 42.277 28.1868 46.9225 28.1376C48.5186 28.1212 49.4103 28.2851 49.1071 30.1621C48.1441 36.1863 47.3505 42.2351 46.548 48.2839C46.334 49.8904 45.4424 50.6936 43.7572 50.9149C40.2262 51.3739 36.829 52.2837 33.4496 53.3246C28.599 54.8245 24.5598 52.0542 20.2977 50.9067C13.7262 49.1281 13.8332 48.8822 13.9134 42.4318C13.9224 41.4974 13.4854 40.5631 13.4052 39.6205C13.316 38.5386 13.5835 37.4731 15.1439 37.8829C16.4636 38.2271 17.6316 38.2107 18.987 38.0058C20.2264 37.8173 21.5282 38.2517 21.4568 40.1041C21.4033 41.4728 21.8314 43.9071 22.509 44.0547C25.2464 44.6448 27.8144 46.2185 30.7033 45.907C33.3248 45.6283 35.8749 44.8579 38.4875 44.4317C39.5575 44.2596 39.1651 43.7268 39.2454 43.1613C39.5129 41.1532 40.0122 39.1615 40.1905 37.1452C40.3154 35.7355 40.0122 34.8421 37.7742 34.8339C30.5785 34.7929 23.3828 34.1782 16.1872 34.1372C13.111 34.1208 13.0574 32.875 12.7364 30.6129C11.934 25.0312 17.1591 25.6623 20.1283 24.5395C23.3739 23.3182 26.4501 21.5069 30.1683 21.1544Z" fill="#FEFEFE"/>
</svg>
