<svg width="63" height="70" viewBox="0 0 63 70" fill="none" xmlns="http://www.w3.org/2000/svg">
<path d="M48.1564 14.0379C52.6491 18.9311 57.1272 23.8406 61.6569 28.701C62.5436 29.6517 62.6545 30.7336 62.6545 31.9631C62.6397 40.0527 62.5732 48.1342 62.6914 56.2239C62.721 58.4696 62.0264 58.9942 60.1568 58.8958C57.1124 58.7319 54.0532 58.8385 51.0013 58.8385C49.9298 58.6745 49.3239 57.7566 48.6367 56.9943C36.6658 43.7246 24.6875 30.4632 12.7609 17.1525C11.8594 16.1526 10.4184 15.2346 11.2978 13.3167C11.6081 13.1609 11.9259 13.038 12.251 12.9314C13.5959 12.5298 14.963 12.4151 16.3448 12.4233C24.9904 12.4397 33.6435 12.4643 42.2891 12.4069C44.4025 12.3823 46.3829 12.6528 48.1564 14.0379Z" fill="#1565BF"/>
<path d="M11.2682 14.1772C20.5124 24.5209 29.764 34.8563 38.9935 45.2163C43.0133 49.7325 46.9962 54.2895 50.9939 58.8302L51.0752 58.9778C49.8781 59.9613 48.4815 59.9122 47.1071 59.9122C38.1437 59.9285 29.1803 59.9121 20.2169 59.9285C18.7094 59.9285 17.2906 59.6007 15.9014 59.0024C13.8176 57.609 12.3397 55.4944 10.7066 53.5683C10.012 51.8471 9.72384 50.0521 9.72384 48.1588C9.74601 38.5282 9.68689 28.9058 9.77556 19.2753C9.79034 17.4885 9.25091 15.3165 11.2682 14.1772Z" fill="#42A4F4"/>
<path d="M15.894 59.0022C27.6211 58.9941 39.3482 58.9859 51.0752 58.9777C51.0531 61.707 50.957 64.4364 51.0309 67.1575C51.0826 68.8951 50.4619 69.4114 48.9544 69.4032C41.4763 69.3459 33.9982 69.3623 26.5201 69.3951C25.4412 69.4033 24.6579 68.9443 23.9338 68.1164C21.2736 65.0674 18.5838 62.0348 15.894 59.0022Z" fill="#84CAF7"/>
<path d="M48.1563 14.0379C45.8508 13.2839 43.4788 13.4642 41.129 13.4724C31.1828 13.5134 21.2366 13.5707 11.283 13.6281C11.0687 13.8002 10.8987 13.7429 10.7731 13.497C17.3349 9.5218 23.8303 5.40729 30.4808 1.62884C33.2075 0.0797506 36.1189 0.55514 38.4097 3.04679C41.7127 6.64493 44.9124 10.366 48.1563 14.0379Z" fill="#42A4F4"/>
<path d="M10.7731 13.4969C10.9431 13.5461 11.113 13.5871 11.283 13.6281C11.283 13.8084 11.2756 13.9969 11.2682 14.1772C10.3371 14.8657 10.6549 15.9394 10.6549 16.8738C10.6549 29.1107 10.6844 41.3395 10.7066 53.5764C7.95035 50.5111 5.1793 47.4621 2.43782 44.3885C0.656959 42.3886 -0.384951 39.8888 0.627403 37.2578C3.73097 29.1927 6.81237 21.1112 10.7731 13.4969Z" fill="#1565C0"/>
</svg>
