<svg width="63" height="80" viewBox="0 0 63 80" fill="none" xmlns="http://www.w3.org/2000/svg">
<path d="M9.64305 52.7693C4.47824 50.1465 0.958072 46.7041 0.582974 41.3602C0.236729 36.4588 1.36201 32.2296 6.61339 29.4347C8.62353 28.3692 9.21022 27.5086 6.73842 25.9349C1.00616 22.2876 -1.21558 15.6814 0.996536 10.3047C3.24712 4.82143 9.3064 1.00199 16.4717 0.903639C26.6186 0.756107 36.7655 0.86266 46.9124 0.764305C54.1162 0.690539 59.4349 5.28042 61.4931 9.73916C64.0227 15.2224 62.1664 20.7631 57.0304 24.771C56.0013 25.5742 55.3858 26.7709 54.5682 27.8036C59.8677 31.0821 63.6379 35.6228 62.1087 42.5158C60.8776 48.0647 57.117 51.4087 51.125 53.1135C45.412 54.7446 40.1991 53.9413 35.6883 50.3514C35.1112 49.8924 34.6015 48.8597 33.6878 49.2859C33.0915 49.5646 33.0626 50.417 33.0915 51.253C33.2453 55.9248 32.8414 60.6131 33.0915 65.2767C33.3992 71.0059 30.1003 74.9482 24.7528 77.5301C18.9243 80.3496 13.0766 79.8906 7.3155 76.5219C2.1026 73.4729 0.534878 69.4404 0.727236 64.3915C0.919594 59.0312 4.43015 55.7117 9.64305 52.7693Z" fill="black"/>
<path d="M32.649 14.5341C32.649 11.5261 32.6683 8.52624 32.6394 5.51822C32.6298 3.95275 33.3992 3.26428 35.3132 3.31345C39.7086 3.4282 44.152 3.08395 48.4993 3.52655C54.9049 4.17405 59.3964 9.37046 59.1944 15.2308C59.0117 20.6812 54.145 25.2465 47.7684 25.7055C43.5269 26.0088 39.2565 25.9268 35.0054 26.2055C32.5529 26.3694 32.8318 24.8039 32.7741 23.7712C32.6009 20.6976 32.7164 17.6158 32.7164 14.5423C32.6971 14.5259 32.6779 14.5259 32.649 14.5341Z" fill="#F66C60"/>
<path d="M29.8695 41.2126C29.379 43.9173 31.9758 48.7777 29.0039 50.8186C26.4648 52.5644 21.0018 51.0808 16.8469 51.2939C9.14293 51.6792 4.06467 46.0893 3.42989 40.6553C2.75663 34.9015 8.39273 29.5002 15.5196 28.8527C17.2989 28.6888 19.1071 28.7871 20.9056 28.7789C30.2157 28.738 30.2061 28.738 29.8695 36.844C29.831 37.9997 29.8695 39.1553 29.8695 41.2126Z" fill="#9C56F6"/>
<path d="M29.8502 15.1733C29.8502 16.0667 29.8694 16.9683 29.8502 17.8616C29.8021 20.5172 30.8024 23.8367 29.302 25.6071C28.244 26.8529 23.7717 25.8939 20.8382 26.0742C9.18131 26.8037 2.23719 21.5827 3.61255 13.0423C4.37236 8.32125 8.46959 4.69851 13.9806 3.82972C18.4049 3.13304 22.8483 3.41991 27.2918 3.46089C29.427 3.47728 29.7444 4.59197 29.7732 5.94434C29.8213 9.01792 29.7925 12.0997 29.7925 15.1733C29.8117 15.1733 29.8309 15.1733 29.8502 15.1733Z" fill="#E94B1C"/>
<path d="M20.7517 54.3184C29.6675 54.261 29.427 54.2692 29.9849 62.0802C30.5619 70.2109 27.5227 73.8828 20.367 76.1531C15.6061 77.6612 10.9222 76.3744 7.51743 73.5222C3.86263 70.4732 2.29493 66.3423 4.2666 61.9819C6.1998 57.7116 9.42177 54.4577 15.3945 54.3184C17.1738 54.2856 18.9627 54.3184 20.7517 54.3184Z" fill="#00C87A"/>
<path d="M33.4088 39.5571C33.2646 33.5493 38.6506 28.9758 45.8063 28.7299C52.837 28.4922 59.6753 33.0083 59.5214 39.9997C59.3771 46.3026 54.3566 50.7859 47.1143 51.2531C40.0163 51.7121 32.0046 46.2206 33.4088 39.5571Z" fill="#18B5F4"/>
<path d="M36.3038 29.1152C35.6306 30.2134 34.6496 30.738 33.2646 30.5905C33.1684 30.5823 33.0049 29.8774 33.1395 29.6069C33.8416 28.2382 34.9477 28.2955 36.3038 29.1152Z" fill="#C0C0C0"/>
</svg>
