<svg width="64" height="83" viewBox="0 0 64 83" fill="none" xmlns="http://www.w3.org/2000/svg">
<path d="M43.6789 0C50.1128 1.9425 56.222 3.79485 62.3386 5.61441C62.774 5.74555 63.047 5.93407 63.1281 6.40945C63.3052 7.44217 62.5305 7.68807 61.9624 8.0569C57.1296 11.2042 52.2894 14.3352 47.4492 17.4662C35.1717 25.3837 22.85 33.2357 10.6241 41.2598C8.44013 42.6941 7.47357 42.2597 6.40371 39.8582C4.92067 36.5224 3.20154 33.293 1.38648 30.1539C0.294486 28.2688 0.419904 27.359 2.27186 26.1951C14.21 18.6792 26.0669 11.0075 37.9607 3.39325C39.8791 2.16381 41.7015 0.680286 43.6789 0Z" fill="#5CC2EF"/>
<path d="M56.4138 41.2434C48.9322 46.071 42.159 50.5461 35.275 54.7999C33.4157 55.9474 33.305 56.8162 34.3453 58.7669C38.3886 66.291 42.2696 73.9135 46.5417 82.1425C41.2736 80.5606 36.5883 78.7656 31.7629 77.8313C27.1736 76.9461 24.333 74.479 22.267 69.8646C19.5076 63.701 16.18 57.8407 13.0073 51.8985C12.2695 50.5133 12.2104 49.8248 13.6344 48.9314C20.4225 44.6858 27.1367 40.309 33.8731 35.965C34.6479 35.4651 35.4004 34.9733 36.367 35.2683C42.8156 37.2026 49.2643 39.1124 56.4138 41.2434Z" fill="#0D459B"/>
</svg>
