<svg width="63" height="68" viewBox="0 0 63 68" fill="none" xmlns="http://www.w3.org/2000/svg">
<path d="M31.6967 0.481364C40.9874 0.481364 50.2869 0.604315 59.5775 0.39941C62.0497 0.342036 62.5762 1.41573 62.4424 3.01399C61.4696 14.6034 60.3807 26.1929 59.3276 37.7742C58.7475 44.1836 58.0425 50.5848 57.6855 57.0025C57.5695 59.1581 56.6056 60.1826 54.6243 60.8219C47.7523 63.0431 40.9427 65.4528 33.9904 67.4281C29.6887 68.6493 25.9135 66.0183 21.9331 65.043C17.7474 64.0184 13.6599 62.6579 9.52778 61.453C7.24306 60.7891 6.01145 59.7154 5.76156 57.191C3.98554 39.1593 2.02211 21.144 0.0318982 3.13694C-0.342939 -0.272683 2.68253 0.760035 4.03016 0.710857C11.1967 0.473167 18.3811 0.620706 25.5566 0.628903C27.6003 0.628903 29.653 0.628903 31.6967 0.628903C31.6967 0.587921 31.6967 0.530541 31.6967 0.481364Z" fill="#FE5722"/>
<path d="M31.9378 12.7264C37.5246 12.7264 43.1204 12.8493 48.7073 12.6608C50.76 12.5871 51.0009 12.8247 50.8135 14.7591C50.3316 19.6276 50.519 19.6522 45.0303 19.6604C37.8727 19.6768 30.7151 19.6686 23.5485 19.726C21.594 19.7424 19.8448 20.1604 20.7819 22.6028C21.4334 24.324 19.0862 27.455 23.6378 27.373C31.3041 27.2255 38.9793 27.3484 46.6457 27.2419C49.1803 27.2091 49.8675 27.8156 49.5105 30.3155C48.7608 35.5692 48.4752 40.8804 48.145 46.1834C48.0022 48.5275 47.2436 49.9536 44.4056 50.3552C41.9245 50.7077 39.4702 51.5109 37.123 52.3879C29.7066 55.15 23.2897 50.8716 16.3909 50.0438C15.6948 49.9618 15.6948 49.6339 15.6234 49.0602C15.2575 46.0686 14.5078 43.0934 14.4186 40.0936C14.365 38.3806 16.5694 37.9871 17.8903 38.2002C19.5056 38.4625 22.1831 37.1757 22.5311 40.3149C22.665 41.5443 21.5315 43.5606 23.5753 43.9786C26.574 44.6015 29.2514 46.6423 32.5625 45.8391C34.517 45.3637 36.5875 45.0441 38.3368 44.1835C42.0227 42.3721 40.6572 38.9707 40.8 36.1184C40.9696 32.7743 37.5603 34.3726 36.6857 34.4546C30.0546 35.1021 23.4057 34.1595 16.7836 34.7988C15.2753 34.9463 13.8206 34.8316 13.7314 32.2662C13.535 26.7009 12.4283 21.1685 11.7768 15.6115C11.5627 13.7755 12.0714 12.6035 14.6774 12.6936C20.4249 12.8903 26.1813 12.751 31.9288 12.751C31.9378 12.7428 31.9378 12.7346 31.9378 12.7264Z" fill="#FEFEFE"/>
</svg>
