<svg width="64" height="74" viewBox="0 0 64 74" fill="none" xmlns="http://www.w3.org/2000/svg">
<path d="M4.03292 1.61703C9.77085 1.61703 15.5088 1.62523 21.2396 1.61703C28.8123 1.60064 36.3991 1.84656 43.9576 1.44495C49.1005 1.16627 54.2434 1.35479 59.3721 0.879405C61.0652 0.723677 61.8869 0.854784 61.9648 3.30545C62.2836 13.1081 62.4395 22.919 62.4678 32.7299C62.482 38.7787 62.7866 44.8275 62.9566 50.8763C63.1266 56.9661 62.8928 63.0641 63.3675 69.1539C63.502 70.8997 62.8716 72.039 60.5622 71.8914C55.1076 71.5472 49.6176 71.998 44.1418 72.1455C36.5975 72.3586 29.0461 72.6045 21.5018 72.8176C15.6434 72.9815 9.78502 73.0225 3.93374 73.3012C2.57364 73.3667 2.14152 72.9405 1.97151 71.4898C1.56064 68.0064 1.76608 64.4984 1.71649 61.0233C1.5819 51.4337 1.45439 41.8523 1.21353 32.2627C0.98685 23.3042 1.17812 14.3294 0.93018 5.37912C0.83809 2.28095 1.63148 1.4777 4.03292 1.61703Z" fill="#FEC000"/>
<path d="M48.4063 33.4757C50.1277 33.5167 51.9057 33.197 53.3508 34.7461C54.3922 35.8608 56.2765 36.5083 55.7665 38.541C55.5114 39.5573 54.1513 40.2212 53.2517 40.9834C51.8349 42.1965 51.3178 40.3769 50.4606 39.7868C48.5834 38.5 46.7912 38.6967 45.6223 40.7539C44.2835 43.1062 46.1324 43.9177 47.5137 44.9832C49.0368 46.1635 50.6377 47.0487 52.3449 47.8109C58.3946 50.5238 59.953 58.1873 56.0002 62.7936C51.7145 67.7851 43.2067 67.6867 39.6152 61.7199C39.0698 60.8183 37.9151 59.843 39.5585 59.0315C40.8691 58.384 41.712 55.0891 43.6814 57.7529C45.764 60.5806 47.9813 61.5887 50.8715 59.3348C53.0958 57.5972 53.1383 55.8596 50.7652 54.3433C48.6401 52.9827 46.352 51.95 44.2693 50.5238C40.8266 48.1633 38.8643 43.262 39.7144 39.6475C40.4724 36.4263 44.5456 33.533 48.4063 33.4757Z" fill="black"/>
<path d="M20 59.9332C21.2325 58.3513 22.1393 57.3595 24.0307 59.5561C26.5667 62.5068 28.3306 61.4905 29.1382 57.3432C29.797 53.9335 29.2019 50.5075 29.1169 47.1471C29.0248 43.5571 29.5915 39.9262 28.8406 36.3117C28.1606 33.0414 30.7604 34.1888 31.8513 34.1069C32.7084 34.0413 34.529 32.9594 34.6777 36.0084C35.0036 42.7949 34.444 49.6141 35.2232 56.3842C35.5916 59.6135 33.2893 64.7443 31.065 66.0639C27.601 68.113 23.3435 67.3917 20.4533 64.2689C19.5962 62.9248 19.0791 61.5314 20 59.9332Z" fill="#010000"/>
<path d="M19.9999 59.9332C20.1487 61.3758 20.2974 62.8183 20.4533 64.269C20.0353 63.9657 19.5536 63.7281 19.1994 63.3428C17.6339 61.6544 17.4568 60.3512 19.9999 59.9332Z" fill="#F0EAD9"/>
</svg>
