<svg width="64" height="81" viewBox="0 0 64 81" fill="none" xmlns="http://www.w3.org/2000/svg">
<path d="M20.5973 73.2174C23.6508 70.3897 25.909 69.7504 28.6287 72.3486C30.9152 74.537 33.2302 74.7829 36.1629 72.4469C42.8592 67.103 49.9533 62.4394 56.9123 57.5462C58.013 56.7758 58.7373 56.1693 58.6947 54.3333C58.4319 44.0225 58.4461 33.6952 58.1763 23.3844C58.0769 19.6141 54.6258 19.401 52.6446 18.0077C46.9353 13.9915 40.7999 10.7704 35.0197 6.8772C32.7331 5.33632 30.9862 5.00846 28.6926 6.6559C21.4708 11.8441 14.1709 16.893 6.85674 21.9091C5.80578 22.6303 5.34421 23.1303 5.39392 24.7859C5.70636 35.1214 5.79158 45.465 5.95491 55.8086C5.97621 57.2512 6.13953 58.415 7.58815 59.0871C9.51255 59.9805 11.302 61.2755 13.1412 62.423C16.8977 64.7589 19.7807 62.8246 19.6813 58.0216C19.4825 48.0878 19.4541 38.1376 18.9854 28.2202C18.8363 25.1056 20.1997 25.3433 21.8542 25.0646C24.1976 24.6712 23.7218 26.6711 23.7573 28.0398C23.9988 37.8097 23.8994 47.596 24.4603 57.3413C25.0497 67.5866 18.886 70.9798 11.579 67.562C9.66877 66.6686 8.04261 64.9228 6.11111 64.1032C2.20551 62.4394 1.41731 59.3084 1.44571 54.8169C1.50962 44.6454 1.04805 34.4739 0.849224 24.2942C0.799517 21.6222 1.33209 19.4174 3.66125 17.8601C11.0038 12.9588 18.467 8.22139 25.3977 2.61517C29.6299 -0.810844 33.1805 -0.663318 37.2139 2.1234C44.4854 7.14768 51.9557 11.7294 59.4687 16.2619C61.4925 17.4831 62.6074 19.778 62.6642 22.5484C62.8772 33.1953 63.0477 43.8503 63.3033 54.4972C63.3814 57.7593 62.4157 60.1116 59.9303 61.841C51.835 67.4964 43.8037 73.2911 35.744 79.0203C34.2669 80.0694 32.5769 80.512 31.043 79.6432C27.6061 77.7007 24.2828 75.5041 20.5973 73.2174Z" fill="#7FC628"/>
<path d="M39.2235 23.9091C42.4829 23.6058 45.6003 24.1058 48.3271 26.3925C49.6124 27.4662 50.8053 28.8104 51.0042 30.6136C51.1462 31.8676 52.5309 33.9248 50.5355 34.474C49.1224 34.8674 47.269 35.7362 46.2252 32.7774C44.7481 28.5973 35.8576 27.4006 33.1662 30.7283C31.5188 32.7692 32.4064 35.5559 35.048 36.0559C38.1867 36.6542 41.368 36.8919 44.528 37.359C51.48 38.3836 54.292 43.3095 51.9628 50.2763C50.7059 54.0302 47.6454 55.0711 44.8475 55.7432C40.7786 56.7267 36.6884 56.7431 32.4774 55.1612C29.3317 53.9728 28.1813 51.4156 27.038 48.6206C26.6545 47.6781 25.5326 45.4651 27.2368 45.1127C28.4298 44.8668 30.7093 43.7931 31.4265 46.5388C32.165 49.3665 33.8622 50.8828 36.2836 50.9729C39.7774 51.1123 43.4131 51.8418 46.5944 49.4321C48.3484 48.1043 48.0004 45.1045 46.0476 44.0144C42.5894 42.0719 38.769 42.4079 35.1049 41.867C29.1186 40.9818 25.9729 36.5476 27.6558 30.4906C28.8843 26.0729 32.4348 24.8844 35.8931 23.95C36.944 23.6714 38.1086 23.9091 39.2235 23.9091Z" fill="#7FC628"/>
</svg>
