<svg width="63" height="75" viewBox="0 0 63 75" fill="none" xmlns="http://www.w3.org/2000/svg">
<path d="M56.6221 1.77093C57.4104 1.32834 58.2103 0.893945 59.5782 0.139893C58.4421 6.90177 62.3721 12.7293 62.7083 18.9502C63.914 40.8341 47.1623 59.8084 17.3456 64.7097C13.7171 65.308 10.0885 65.6276 7.57288 67.8406C5.90351 66.3325 7.56128 65.0949 8.45392 63.9474C18.9454 50.5384 29.0775 36.9901 39.5111 23.5647C44.2757 17.4257 48.9012 11.2294 53.6311 5.07403C54.5122 3.91017 55.4164 2.77907 56.6221 1.77093Z" fill="#4DA43F"/>
<path d="M56.6221 1.77087C54.5702 7.123 49.8172 11.549 46.3277 16.4012C40.0096 25.1629 33.0192 33.6788 26.3301 42.3012C20.9047 49.3007 15.4792 56.3003 10.1581 63.3326C9.08 64.7506 7.57294 66.0948 7.57294 67.8406L7.58453 67.8488C4.36173 67.4717 6.13543 65.603 5.55579 64.4392C5.52101 63.8654 5.48623 63.2999 5.45145 62.7261C3.35315 56.12 0.976624 49.5548 1.75334 42.67C2.7851 33.6214 8.21053 25.8842 15.7111 18.7371C16.0821 18.3846 16.4299 18.024 16.6849 17.6224C27.13 8.72129 40.7168 3.77895 56.6221 1.77087Z" fill="#459339"/>
<path d="M16.6732 17.6224C14.8184 20.0977 13.1258 22.6467 11.0623 25.04C1.81123 35.7934 1.25478 47.2763 5.13837 59.1444C5.53253 60.3493 5.5673 61.5131 5.43978 62.718C-4.53005 48.7025 0.454869 28.6545 16.6732 17.6224Z" fill="#50A643"/>
<path d="M5.54416 64.4309C7.34104 65.2341 5.66009 67.0701 7.5729 67.8405C6.35565 69.4716 5.19637 71.1272 3.87479 72.7173C3.44585 73.2418 3.38789 74.4795 1.77649 73.8074C0.53606 73.291 0.443305 72.4796 1.05772 71.537C2.61116 69.1929 4.06028 66.8078 5.54416 64.4309Z" fill="#55A748"/>
</svg>
