<svg width="64" height="64" viewBox="0 0 64 64" fill="none" xmlns="http://www.w3.org/2000/svg">
<path d="M13.6433 41.7111C13.5791 42.8668 13.5631 43.1701 13.547 43.4815C13.3224 47.8665 12.2391 48.7271 8.34765 46.9239C6.27753 45.965 4.29567 44.5798 3.22852 42.2111C-0.117374 34.7444 -0.269825 27.3596 4.14322 20.3518C6.03682 17.352 8.82907 15.3193 12.7848 15.5652C18.626 15.9258 24.4753 16.0242 30.3246 16.2455C31.3757 16.2865 32.4188 16.2619 32.5793 14.9013C32.7879 13.1063 31.2794 13.6719 30.5092 13.6227C26.6417 13.385 22.7743 13.2375 18.9069 13.1473C17.0373 13.1063 16.3072 12.2785 16.909 10.4754C17.6471 8.26238 16.259 5.77893 18.2088 3.59054C19.3642 2.29554 20.4153 1.33658 22.0281 1.10709C28.8242 0.131735 35.6042 -0.50757 42.3682 1.54148C45.5376 2.50044 48.5304 6.56576 48.2737 9.90982C47.8965 14.6964 48.2255 19.5076 47.7441 24.3106C47.4552 27.1465 44.7914 30.6954 42.0232 30.802C38.1317 30.9495 34.2241 30.72 30.3326 30.8512C26.4652 30.9823 22.5577 29.8594 18.7624 32.0068C14.5259 34.3919 13.4588 38.0966 13.6433 41.7111Z" fill="#3577AD"/>
<path d="M16.0023 49.6861C15.6653 47.2436 16.3714 43.9733 16.0665 40.6539C15.7135 36.7525 18.5459 33.5395 22.4454 33.3592C26.369 33.1789 30.3247 33.6051 34.2483 33.392C36.9763 33.2445 39.6563 34.1952 42.3763 33.4494C49.0199 31.6298 50.3278 27.4743 50.5685 21.1714C50.6247 19.7043 49.8945 17.6143 51.2746 17.0406C52.8713 16.3767 54.9254 16.5898 56.6024 17.8274C61.8258 21.6878 63.4947 27.1301 63.1978 33.3756C62.9973 37.6622 61.9622 41.6948 59.0095 45.0142C56.8431 47.4567 54.3637 48.7599 51.0098 48.5714C45.0321 48.2354 39.0384 48.2108 33.0527 47.9895C32.0177 47.9485 31.9214 48.5304 31.8251 49.2599C31.6406 50.5959 32.5874 50.9319 33.478 50.7762C35.853 50.3746 38.1879 51.1942 40.5228 50.8581C42.4405 50.5877 44.2539 51.3253 46.1154 51.1696C46.8375 51.1122 46.8856 51.3335 46.9819 51.8991C47.8003 56.4644 46.5807 60.6772 41.4937 62.4148C34.505 64.7999 27.5565 64.3163 20.8647 61.628C17.92 60.4395 15.5851 58.3331 15.9863 54.4727C16.1147 53.1777 16.0023 51.8499 16.0023 49.6861Z" fill="#E9B530"/>
<path d="M27.5083 7.69674C27.717 10.5326 25.4623 10.967 23.8174 11.0408C22.1806 11.1064 21.0252 9.52449 21.3221 7.66395C21.6189 5.77882 22.7824 4.12318 24.7241 4.23793C26.4653 4.34448 27.6367 5.73784 27.5083 7.69674Z" fill="#F7F9FB"/>
<path d="M43.2027 56.9478C43.0262 58.3247 41.2048 59.1116 39.8007 59.1608C38.3805 59.2099 36.7516 58.1198 36.7677 56.1118C36.7837 53.907 38.4286 52.5956 40.1136 52.4317C42.2399 52.2431 42.9219 54.2348 43.2027 56.9478Z" fill="#FDFCF7"/>
</svg>
