<svg width="63" height="78" viewBox="0 0 63 78" fill="none" xmlns="http://www.w3.org/2000/svg">
<path d="M14.8505 61.7493C14.8505 55.9545 14.8505 55.9627 10.8396 54.4874C7.94452 53.4219 5.18586 51.9466 2.86115 49.3566C-0.0400949 46.1273 -0.393459 42.4554 1.80727 38.3737C4.10099 34.1362 7.40517 31.5954 10.8829 29.4808C12.222 28.6693 12.4885 27.9153 11.9864 26.0629C10.9759 22.3501 10.3374 18.506 10.4428 14.4981C10.6474 7.02313 14.0694 3.67907 19.5991 5.52322C22.0354 6.34284 24.4407 7.46572 26.3377 9.54756C28.5322 11.9491 29.8526 11.3016 31.4582 8.62139C33.1072 5.86746 35.2584 3.74464 37.6885 2.21195C42.2263 -0.640335 45.5987 1.24479 47.3283 7.44113C48.3883 11.2442 48.5991 15.1866 48.283 19.088C48.0412 22.096 48.9091 23.0139 50.9362 23.4729C54.1412 24.2024 57.1665 25.7105 59.8259 28.2677C63.3595 31.661 63.8183 35.8984 61.0658 40.3735C58.7721 44.1028 55.7778 46.66 52.5108 48.6189C51.1842 49.414 50.9052 50.2828 51.4136 52.1187C52.5418 56.1594 53.0564 60.3641 52.7464 64.6917C52.2814 71.1257 49.4546 74.0026 44.6254 72.9617C41.3584 72.2568 38.5006 70.2815 35.8721 67.7735C34.6508 66.6096 33.9813 66.7408 33.0142 68.2079C30.8879 71.4454 28.4516 74.2731 25.445 76.0435C20.7831 78.781 17.3488 76.7402 15.7246 70.3635C14.9745 67.4374 14.7823 64.4048 14.8505 61.7493Z" fill="#00B7D9"/>
<path d="M30.268 52.6433C28.6996 52.4056 27.5279 53.4383 26.5671 51.8155C24.4407 48.2091 21.0311 44.9389 20.8266 40.6522C20.622 36.2837 22.5066 31.2676 24.8313 27.9317C26.784 25.1368 30.4478 26.2187 33.3614 25.6532C34.4153 25.4483 35.7047 24.8089 36.6098 26.2843C38.7795 29.8496 42.0466 33.1117 42.4371 37.4229C42.8029 41.4309 40.7447 45.865 38.9097 49.4058C36.7586 53.5367 32.7787 51.1516 30.268 52.6433Z" fill="#FEFEFE"/>
<path d="M14.2615 51.9793C11.0813 51.258 8.07465 50.045 5.37179 47.8074C2.56973 45.4879 2.30936 42.611 4.53489 39.3817C6.69222 36.2425 9.45707 34.2508 12.2777 32.3739C13.2262 31.7428 13.7594 32.0215 14.2243 33.2837C15.0922 35.6442 16.0531 37.9392 17.0077 40.2423C17.2991 40.9472 17.4913 41.6029 17.3301 42.4143C16.7908 45.16 16.2763 47.9221 15.7431 50.6761C15.5447 51.7416 15.2224 52.5776 14.2615 51.9793Z" fill="#FEFEFE"/>
<path d="M45.89 36.4967C46.5161 33.1362 47.0369 30.3823 47.5328 27.6284C47.7064 26.6694 47.9792 26.0383 48.8718 26.3088C52.176 27.3333 55.4802 28.3988 58.2947 31.0626C60.6194 33.2674 60.8178 35.2509 59.0076 38.2097C56.8255 41.7832 53.8251 43.9061 50.7936 45.9387C50.3349 46.242 49.8699 46.5207 49.5352 45.7174C48.3325 42.857 47.1299 39.9965 45.9582 37.1196C45.8218 36.7754 45.8776 36.2918 45.89 36.4967Z" fill="#FEFEFE"/>
<path d="M45.7784 16.9815C45.7784 17.6372 45.7412 18.3011 45.7846 18.9486C45.9582 21.4156 45.3569 22.7434 43.2925 22.0467C43.1314 21.9894 42.9578 21.9402 42.8028 21.9812C37.9674 23.2352 35.0042 19.383 32.1029 15.2521C31.4768 14.3669 31.3342 13.8014 31.9975 12.8424C34.1301 9.75242 36.3432 6.80178 39.3126 5.12155C41.9287 3.62984 43.5901 4.49864 44.6688 7.99023C45.5491 10.8507 45.828 13.8915 45.7784 16.9815Z" fill="#FEFEFE"/>
<path d="M17.4169 61.1919C17.4355 56.3726 17.5409 57.0938 20.9691 56.2496C26.0711 54.9792 28.3462 59.7002 31.3652 63.1508C32.2021 64.1098 31.7992 64.7901 31.2722 65.6015C29.3071 68.6095 27.0381 71.1339 24.3415 72.8961C21.4154 74.8058 19.4441 73.6666 18.3406 69.5685C17.6153 66.8637 17.3983 64.0524 17.4169 61.1919Z" fill="#FEFEFE"/>
<path d="M50.1861 61.7165C50.1923 68.8963 48.0907 70.929 43.5901 69.1176C41.2716 68.1833 39.2382 66.5604 37.2049 64.9048C36.1882 64.077 35.7294 63.241 36.7275 61.905C36.8949 61.6755 37.0499 61.3886 37.1243 61.0853C38.6679 54.7169 42.6044 52.8318 47.0059 51.6023C48.2271 51.2581 48.5433 51.6269 48.8966 53.0449C49.6839 56.1758 50.1055 59.3559 50.1861 61.7165Z" fill="#FEFEFE"/>
<path d="M17.2371 8.49823C20.7645 9.10475 23.7649 11.3341 26.6724 13.8831C27.4225 14.5388 27.3171 15.1454 26.8831 16.0224C25.7549 18.3009 24.6328 20.5877 23.6223 22.9564C23.2008 23.9481 22.5933 24.2923 21.8742 24.5464C21.0001 24.8497 20.1136 25.1038 19.2395 25.4234C14.5343 27.1528 14.4847 27.1692 13.5734 20.7434C13.1828 17.9895 12.7551 15.2191 13.3006 12.3341C13.84 9.47358 15.117 8.3507 17.2371 8.49823Z" fill="#FEFEFE"/>
<path d="M19.537 45.5615C20.9505 48.0368 22.1903 50.2252 23.7463 52.9545C21.6324 53.0119 19.4192 53.9217 18.539 52.3316C17.6587 50.7333 18.7869 48.086 19.537 45.5615Z" fill="#F3FBFC"/>
<path d="M30.0448 56.0935C32.2207 55.7493 34.3099 55.4132 36.5788 55.0526C36.3928 55.7083 36.3184 56.1345 36.1696 56.4952C33.9255 61.9702 32.8593 61.9374 30.0448 56.0935Z" fill="#F2FBFC"/>
<path d="M44.4828 41.6438C44.6378 41.7176 44.7555 41.7176 44.7927 41.7913C47.8738 48.3155 48.4317 48.0205 41.9535 49.6597C42.8214 46.8976 43.6521 44.2666 44.4828 41.6438Z" fill="#F7FCFD"/>
<path d="M29.6108 16.8912C30.9994 18.596 32.1897 20.0468 33.7643 21.9729C31.1668 22.3827 29.1148 22.7105 26.8273 23.0712C27.4597 20.5795 28.5817 18.9731 29.6108 16.8912Z" fill="#F7FCFD"/>
<path d="M21.4031 28.2349C20.4422 31.2757 19.6363 33.8329 18.7374 36.677C17.5906 35.0459 17.1132 33.1444 16.4189 31.4232C16.0036 30.3905 16.5367 30.1364 17.138 29.9069C18.4461 29.4069 19.7479 28.8906 21.4031 28.2349Z" fill="#F4FBFD"/>
<path d="M43.8505 32.882C42.3255 30.169 41.1228 28.0462 39.7032 25.5218C41.6435 25.3742 43.8195 24.6366 44.644 25.9562C45.6483 27.5626 44.3278 30.087 43.8505 32.882Z" fill="#F8FCFD"/>
<path d="M37.2483 38.898C37.3103 43.0043 34.719 46.5451 31.6442 46.5451C28.6685 46.5451 26.0834 43.242 25.9657 39.2914C25.8541 35.4802 28.4268 31.8083 31.3466 31.6116C34.3966 31.4148 37.1863 34.8573 37.2483 38.898Z" fill="#01B8D9"/>
</svg>
